<?xml version="1.0" encoding="utf-8"?>
<!-- Generator: Adobe Illustrator 17.0.0, SVG Export Plug-In . SVG Version: 6.00 Build 0)  -->
<!DOCTYPE svg PUBLIC "-//W3C//DTD SVG 1.1//EN" "http://www.w3.org/Graphics/SVG/1.1/DTD/svg11.dtd">
<svg version="1.1" id="Laag_1" xmlns="http://www.w3.org/2000/svg" xmlns:xlink="http://www.w3.org/1999/xlink" x="0px" y="0px"
	 width="256px" height="256px" viewBox="0 0 256 256" enable-background="new 0 0 256 256" xml:space="preserve">
<path fill="#82B1FF" d="M128,10c31.519,0,61.151,12.274,83.439,34.561C233.726,66.849,246,96.481,246,128
	s-12.274,61.151-34.561,83.439C189.151,233.726,159.519,246,128,246s-61.151-12.274-83.439-34.561C22.274,189.151,10,159.519,10,128
	s12.274-61.151,34.561-83.439C66.849,22.274,96.481,10,128,10 M128,0C57.308,0,0,57.308,0,128s57.308,128,128,128
	s128-57.308,128-128S198.692,0,128,0L128,0z"/>
<g>
	<circle fill="#82B1FF" cx="128" cy="128" r="10"/>
	<path fill="#82B1FF" d="M128,28C72.772,28,28,72.771,28,128c0,55.228,44.772,100,100,100s100-44.772,100-100
		C228,72.771,183.228,28,128,28z M154.785,52.584l3.143-7.357c1.084-2.54,4.022-3.717,6.562-2.634
		c2.54,1.085,3.719,4.023,2.634,6.562l-3.143,7.357c-0.811,1.899-2.658,3.038-4.6,3.038c-0.655,0-1.321-0.13-1.962-0.403
		C154.879,58.062,153.7,55.124,154.785,52.584z M123,40c0-2.761,2.239-5,5-5c2.762,0,5,2.239,5,5v8c0,2.761-2.238,5-5,5
		c-2.761,0-5-2.239-5-5V40z M91.359,42.659c2.537-1.09,5.479,0.084,6.567,2.622l3.156,7.351c1.09,2.538-0.084,5.478-2.622,6.567
		c-0.643,0.276-1.312,0.407-1.97,0.407c-1.939,0-3.784-1.134-4.597-3.029l-3.156-7.351C87.647,46.688,88.821,43.748,91.359,42.659z
		 M42.462,91.818c1.08-2.542,4.014-3.727,6.557-2.648l7.364,3.126c2.542,1.08,3.728,4.015,2.648,6.557
		c-0.809,1.904-2.659,3.047-4.605,3.047c-0.652,0-1.314-0.128-1.952-0.399l-7.364-3.126C42.568,97.295,41.383,94.36,42.462,91.818z
		 M40.125,133.199c-2.756,0-4.993-2.231-5-4.989c-0.006-2.761,2.227-5.005,4.989-5.011l8-0.018c0.003,0,0.008,0,0.012,0
		c2.756,0,4.993,2.231,5,4.989c0.006,2.761-2.227,5.005-4.989,5.011l-8,0.018C40.133,133.198,40.128,133.199,40.125,133.199z
		 M56.708,164.383l-7.344,3.173c-0.646,0.279-1.319,0.411-1.98,0.411c-1.935,0-3.776-1.129-4.592-3.018
		c-1.095-2.535,0.072-5.479,2.607-6.573l7.344-3.173c2.535-1.095,5.479,0.072,6.573,2.606
		C60.41,160.345,59.243,163.288,56.708,164.383z M62.289,62.366c1.952-1.955,5.117-1.956,7.071-0.004l5.66,5.653
		c1.954,1.951,1.956,5.117,0.004,7.071c-0.977,0.978-2.257,1.467-3.538,1.467c-1.279,0-2.557-0.487-3.533-1.462l-5.66-5.653
		C60.339,67.486,60.337,64.32,62.289,62.366z M101.216,203.417l-3.143,7.356c-0.812,1.898-2.659,3.036-4.601,3.036
		c-0.655,0-1.321-0.129-1.962-0.403c-2.54-1.085-3.719-4.022-2.634-6.563l3.143-7.356c1.086-2.538,4.025-3.719,6.563-2.633
		C101.122,197.939,102.301,200.877,101.216,203.417z M133,215.75c0,2.762-2.238,5-5,5c-2.761,0-5-2.238-5-5v-8c0-2.762,2.239-5,5-5
		c2.762,0,5,2.238,5,5V215.75z M67.009,192.814c-0.27,0.095-0.549,0.141-0.827,0.141c-0.622,0-1.232-0.231-1.702-0.668
		c-0.68-0.632-0.954-1.588-0.712-2.483c0.246-0.911,25.728-91.486,125.399-126.441c0.874-0.309,1.853-0.104,2.533,0.532
		c0.68,0.635,0.951,1.595,0.704,2.491c-0.258,0.936-6.528,23.222-25.134,50.104C150.11,141.286,118.786,174.656,67.009,192.814z
		 M164.642,213.342c-0.643,0.275-1.313,0.406-1.971,0.406c-1.938,0-3.783-1.134-4.597-3.028l-3.156-7.351
		c-1.089-2.537,0.085-5.478,2.622-6.567c2.536-1.085,5.479,0.085,6.567,2.622l3.156,7.351
		C168.353,209.312,167.179,212.252,164.642,213.342z M193.711,193.634c-0.977,0.978-2.258,1.467-3.538,1.467
		c-1.278,0-2.558-0.487-3.533-1.462l-5.66-5.653c-1.954-1.952-1.956-5.118-0.005-7.071c1.951-1.954,5.118-1.956,7.071-0.005
		l5.66,5.653C195.66,188.515,195.662,191.681,193.711,193.634z M199.391,91.847l7.344-3.173c2.54-1.095,5.479,0.072,6.573,2.607
		c1.096,2.535-0.072,5.478-2.606,6.573l-7.344,3.173c-0.646,0.279-1.319,0.412-1.98,0.412c-1.935,0-3.776-1.129-4.593-3.019
		C195.688,95.885,196.856,92.942,199.391,91.847z M213.439,164.412c-0.809,1.904-2.659,3.047-4.604,3.047
		c-0.652,0-1.314-0.128-1.952-0.398l-7.363-3.127c-2.542-1.08-3.728-4.016-2.648-6.557c1.08-2.543,4.019-3.726,6.557-2.648
		l7.363,3.127C213.333,158.936,214.519,161.871,213.439,164.412z M215.887,132.801l-8,0.019c-0.004,0-0.008,0-0.012,0
		c-2.757,0-4.994-2.231-5-4.989c-0.006-2.761,2.228-5.005,4.988-5.011l8-0.018c0.004,0,0.008,0,0.012,0c2.757,0,4.994,2.231,5,4.989
		C220.881,130.552,218.647,132.795,215.887,132.801z"/>
</g>
</svg>
